Coordinates
version=1
nRows=17
nColumns=24
inDegrees=yes

Units are S.I. units (second, meters, Newtons, ...)
Angles are in degrees.

endheader
time	pelvis_tilt	pelvis_list	pelvis_rotation	pelvis_tx	pelvis_ty	pelvis_tz	hip_flexion_r	hip_adduction_r	hip_rotation_r	knee_angle_r	ankle_angle_r	subtalar_angle_r	mtp_angle_r	hip_flexion_l	hip_adduction_l	hip_rotation_l	knee_angle_l	ankle_angle_l	subtalar_angle_l	mtp_angle_l	lumbar_extension	lumbar_bending	lumbar_rotation
      0.56700000	      2.64187265	      0.76561410	      8.10164675	     -0.88095074	      1.01921511	      0.30378342	     18.98021625	     -1.31994101	     -9.61279766	      3.30039217	      5.82539602	     -1.91421809	      6.20080168	    -16.64206964	      2.96009646	     10.19440439	    -10.60294416	     12.70503385	     -8.67626329	     -2.02974709	     -5.99155732	     -2.46431717	     -4.16714760
      0.57116667	      2.71167920	      0.64062517	      8.23045625	     -0.87483291	      1.01884696	      0.30395741	     18.95701576	     -1.15229775	     -9.43428446	      2.65099555	      5.91339894	     -2.14719385	      6.21170097	    -16.69138614	      2.76529607	     10.12023506	    -11.34799924	     12.84321128	     -8.43710773	     -2.00521529	     -5.99043554	     -2.30532223	     -4.28215310
      0.57533333	      2.79097598	      0.50378868	      8.36480850	     -0.86868056	      1.01851041	      0.30412667	     18.89810485	     -0.96568140	     -9.18687838	      2.02742654	      5.90848895	     -2.53015549	      6.22996445	    -16.75152257	      2.55935080	     10.11435631	    -12.09475416	     12.89998518	     -8.32973726	     -1.96988467	     -5.98911633	     -2.11226002	     -4.39207713
      0.57950000	      2.86502061	      0.37759763	      8.50148890	     -0.86249666	      1.01819008	      0.30432085	     18.83329457	     -0.78485238	     -8.93498349	      1.40699732	      5.79571515	     -3.01158368	      6.25991642	    -16.78980185	      2.36028220	     10.07577777	    -12.86952819	     12.93588962	     -8.18409081	     -1.91072788	     -5.97482575	     -1.94766463	     -4.53147510
      0.58366667	      2.97090062	      0.23854197	      8.63965922	     -0.85627329	      1.01793590	      0.30453966	     18.71808577	     -0.57847467	     -8.68802657	      0.81005551	      5.59360645	     -3.54075886	      6.30231397	    -16.84608201	      2.13879707	     10.01849718	    -13.66948334	     12.93754696	     -8.02816307	     -1.82466265	     -5.99640458	     -1.76523673	     -4.66196348
      0.58783333	      3.07705172	      0.10309769	      8.77210153	     -0.84998879	      1.01769355	      0.30478410	     18.58736172	     -0.36809033	     -8.42936378	      0.23466890	      5.30759167	     -4.11016854	      6.35977613	    -16.89339133	      1.91897589	      9.94117300	    -14.48753816	     12.90295959	     -7.86077954	     -1.70929750	     -6.00845310	     -1.59816379	     -4.79223178
      0.59200000	      3.17702228	     -0.02932203	      8.90997129	     -0.84367441	      1.01746581	      0.30504713	     18.45058829	     -0.15728575	     -8.17864756	     -0.31922466	      4.94776297	     -4.70556790	      6.42748531	    -16.92751129	      1.69797766	      9.86882945	    -15.31467503	     12.80634187	     -7.70874775	     -1.57010048	     -6.00490128	     -1.42931499	     -4.92266305
      0.59616667	      3.31849175	     -0.14374796	      9.03709345	     -0.83736832	      1.01732299	      0.30537263	     18.25689095	      0.05284791	     -7.89204397	     -0.84541937	      4.50228248	     -5.38058121	      6.53617430	    -16.98853583	      1.48533199	      9.76418606	    -16.17332988	     12.71227710	     -7.51735211	     -1.34691714	     -6.06840142	     -1.30253442	     -5.05208965
      0.60033333	      3.42481734	     -0.28043073	      9.17055568	     -0.83099966	      1.01714593	      0.30570323	     18.08848056	      0.28294353	     -7.62974356	     -1.33948445	      3.97485321	     -6.04777268	      6.65783778	    -16.99816160	      1.24993929	      9.66095089	    -17.05082736	     12.56655060	     -7.32727262	     -1.09334205	     -6.06165142	     -1.13868595	     -5.18407434
      0.60450000	      3.54396565	     -0.41339001	      9.29999114	     -0.82458757	      1.01701532	      0.30606473	     17.89068507	      0.51785125	     -7.36819843	     -1.79723294	      3.36862921	     -6.72872737	      6.79796041	    -17.01671395	      1.01040414	      9.53580295	    -17.92791737	     12.35360235	     -7.13947552	     -0.79390549	     -6.06939661	     -0.97799881	     -5.30898049
      0.60866667	      3.68373711	     -0.54914775	      9.42283825	     -0.81814502	      1.01694547	      0.30647203	     17.65858689	      0.76650286	     -7.11298690	     -2.22104575	      2.69500813	     -7.40641796	      6.95365364	    -17.04313117	      0.75780586	      9.37908944	    -18.81819659	     12.10678020	     -6.91522889	     -0.45070798	     -6.09533299	     -0.81513056	     -5.42633160
      0.61283333	      3.79407041	     -0.68130217	      9.54450567	     -0.81168020	      1.01684492	      0.30691203	     17.45468381	      1.00921305	     -6.86428328	     -2.63213260	      1.96890034	     -8.07404799	      7.11434430	    -17.01896585	      0.50809301	      9.20988937	    -19.74734349	     11.80712393	     -6.69461995	     -0.08108727	     -6.07967341	     -0.66520445	     -5.54419877
      0.61700000	      3.91337485	     -0.81853652	      9.66346737	     -0.80518349	      1.01680261	      0.30738573	     17.22998407	      1.26313112	     -6.62175577	     -3.01421403	      1.18934997	     -8.74553584	      7.30033111	    -16.99013886	      0.24198933	      9.00353319	    -20.68345347	     11.45618581	     -6.42907255	      0.36406439	     -6.07516830	     -0.51512186	     -5.66160918
      0.62116667	      4.02866783	     -0.95507534	      9.77247417	     -0.79867298	      1.01677870	      0.30790464	     17.01013439	      1.51985901	     -6.38826448	     -3.39044973	      0.38853120	     -9.38176257	      7.49297268	    -16.94029348	     -0.03078698	      8.75575257	    -21.63650424	     11.05743792	     -6.14516966	      0.85292390	     -6.05830949	     -0.36897284	     -5.76041045
      0.62533333	      4.16667618	     -1.08504094	      9.87327176	     -0.79213885	      1.01682034	      0.30845109	     16.76607687	      1.77301965	     -6.19422851	     -3.76509362	     -0.41316660	     -9.94274944	      9.26564212	    -16.91589017	     -0.30191682	      8.53292017	    -22.56500916	     10.40183400	     -5.99675007	      5.37044852	     -6.05679983	     -0.23550696	     -5.65983756
      0.62950000	      4.24084411	     -1.22554530	      9.97757388	     -0.78561865	      1.01679395	      0.30903419	     16.60698297	      2.02416000	     -6.02953906	     -4.17191912	     -1.16613972	    -10.42164353	      9.27311568	    -16.76164204	     -0.59281416	      8.20642191	    -23.60914316	      9.96799572	     -5.60558066	      5.47260422	     -5.99653657	     -0.09989862	     -5.94405149
      0.63366667	      4.36062350	     -1.36539138	     10.06514744	     -0.77909216	      1.01686134	      0.30966923	     16.38957410	      2.29143636	     -5.82347669	     -4.55518143	     -1.94167909	    -10.98078381	      9.29802104	    -16.65411946	     -0.89242378	      7.87862055	    -24.63743165	      9.41165623	     -5.27064740	      5.65832568	     -5.98069710	      0.03972301	     -6.00868089
